<?xml version="1.0" encoding="utf-8"?>
<!-- Generator: Adobe Illustrator 22.1.0, SVG Export Plug-In . SVG Version: 6.00 Build 0)  -->
<svg version="1.1" id="Capa_1" xmlns="http://www.w3.org/2000/svg" xmlns:xlink="http://www.w3.org/1999/xlink" x="0px" y="0px"
	 viewBox="200 28 560 505" style="enable-background:new 200 28 560 505;" xml:space="preserve">
<style type="text/css">
	.st0{fill:#6E3667;}
</style>
<g>
	<path class="st0" d="M675.8,183.8c-4.9-84-74.2-151.1-157.6-151.1c-50.7,0-99.8,24.9-130.2,65.4c-0.7-0.4-1.4-0.6-2.2-1
		c-1.8-0.9-3.7-1.7-5.6-2.5c-1.1-0.4-2.2-0.8-3.3-1.2c-1.8-0.6-3.7-1.2-5.6-1.7c-1.1-0.3-2.2-0.6-3.4-0.9c-2.1-0.5-4.1-0.8-6.3-1.1
		c-1-0.1-2-0.3-2.9-0.4c-3.1-0.4-6.2-0.6-9.4-0.6c-46.3,0-84,37.7-84,84c0,1.2,0.1,2.4,0.1,3.6c-38.8,21.2-65.5,65.5-65.5,109.9
		c0,66.1,53.8,119.9,119.9,119.9H368c5.2,0,9.3-4.2,9.3-9.3s-4.2-9.3-9.3-9.3h-48.1c-55.8,0-101.2-45.4-101.2-101.2
		c0-38.8,25.2-79,60-95.7l5.3-2.5V182c0-1.1,0.1-2.3,0.1-3.5l0.1-1.6l-0.1-1.9c-0.1-0.8-0.1-1.5-0.1-2.3c0-36,29.3-65.3,65.3-65.3
		c2.9,0,5.7,0.3,8.6,0.6c0.7,0.1,1.5,0.2,2.2,0.3c2.5,0.4,4.9,1,7.4,1.6c0.3,0.1,0.7,0.2,1,0.3c2.7,0.8,5.3,1.8,7.8,3
		c0.7,0.3,1.3,0.6,1.9,0.9c2.2,1.1,4.5,2.3,6.6,3.7c18,11.7,29.9,31.9,29.9,54.8c0,5.2,4.2,9.3,9.3,9.3c5.2,0,9.3-4.2,9.3-9.3
		c0-25.7-11.6-48.7-29.9-64.1c26.7-35,70.8-57.2,114.7-57.2c72.3,0,132.3,57.3,138.6,129.6c-9.5-0.7-23.8-1-38.1,1.2
		c-5.1,0.8-8.6,5.5-7.8,10.6c0.7,4.6,4.7,7.9,9.2,7.9c0.5,0,0.9,0,1.4-0.1c20.8-3.1,42.4-0.2,43.7,0c43.5,8.3,76.2,48.3,76.2,93.2
		c0,51.6-42,93.6-93.6,93.6h-37.1c-5.2,0-9.3,4.2-9.3,9.3s4.2,9.3,9.3,9.3h37.1c61.9,0,112.3-50.4,112.3-112.3
		C760,242.5,724.3,196.6,675.8,183.8z"/>
	<path class="st0" d="M557.4,319.3c1.8,1.8,4.2,2.7,6.6,2.7s4.8-0.9,6.6-2.7c3.6-3.6,3.6-9.5,0-13.2l-74.7-74.7
		c-0.9-0.9-1.9-1.5-3-2c-2.3-0.9-4.9-0.9-7.1,0c-1.1,0.5-2.2,1.2-3,2l-74.7,74.7c-3.6,3.6-3.6,9.5,0,13.2c1.8,1.8,4.2,2.7,6.6,2.7
		s4.8-0.9,6.6-2.7l58.7-58.7v234.9l-58.7-58.7c-3.6-3.6-9.5-3.6-13.2,0s-3.6,9.5,0,13.2l74.7,74.7c0.9,0.9,1.9,1.5,3,2
		c1.1,0.5,2.4,0.7,3.6,0.7c1.2,0,2.4-0.3,3.6-0.7c1.1-0.5,2.2-1.2,3-2l74.7-74.7c3.6-3.6,3.6-9.5,0-13.2c-3.6-3.6-9.5-3.6-13.2,0
		l-58.7,58.7V260.5L557.4,319.3z"/>
</g>
</svg>
