<?xml version="1.0" encoding="utf-8"?>
<!-- Generator: Adobe Illustrator 22.1.0, SVG Export Plug-In . SVG Version: 6.00 Build 0)  -->
<svg version="1.1" id="Layer_1" xmlns="http://www.w3.org/2000/svg" xmlns:xlink="http://www.w3.org/1999/xlink" x="0px" y="0px"
	 viewBox="0 0 589.5 230.9" style="enable-background:new 0 0 589.5 230.9;" xml:space="preserve">
<style type="text/css">
	.st0{fill:#FFFFFF;stroke:#311747;stroke-width:3;stroke-linecap:round;stroke-linejoin:round;stroke-miterlimit:10;}
	.st1{fill:#C78BFF;stroke:#311747;stroke-width:3;stroke-linecap:round;stroke-linejoin:round;stroke-miterlimit:10;}
	.st2{fill:#FFFFFF;}
	.st3{fill:#FFEA75;stroke:#311747;stroke-width:3;stroke-linecap:round;stroke-linejoin:round;stroke-miterlimit:10;}
	.st4{fill:#88D317;stroke:#311747;stroke-width:3;stroke-linecap:round;stroke-linejoin:round;stroke-miterlimit:10;}
	.st5{fill:none;stroke:#311747;stroke-width:3;stroke-linecap:round;stroke-linejoin:round;stroke-miterlimit:10;}
	.st6{fill:#C78BFF;}
	.st7{fill:#E5BAE5;stroke:#311747;stroke-width:3;stroke-linecap:round;stroke-linejoin:round;stroke-miterlimit:10;}
	.st8{fill:#311747;}
	.st9{fill:#88D317;}
	.st10{fill:none;}
	.st11{fill:none;stroke:#311747;stroke-width:9;stroke-linecap:round;stroke-linejoin:round;stroke-miterlimit:10;}
	.st12{fill:#E7E3E4;}
</style>
<path id="XMLID_4_" class="st0" d="M414.3,148.7H233.9c-6.3,0-11.5-5.1-11.5-11.5v-108c0-6.3,5.1-11.5,11.5-11.5h180.4
	c6.3,0,11.5,5.1,11.5,11.5v108C425.8,143.6,420.7,148.7,414.3,148.7z"/>
<path id="XMLID_10_" class="st1" d="M222.4,127.5v9.7c0,6.3,5.1,11.5,11.5,11.5h180.4c6.3,0,11.5-5.1,11.5-11.5v-9.7H222.4z"/>
<g id="XMLID_7_">
	<rect id="XMLID_11_" x="230.6" y="25.9" class="st2" width="187.1" height="93.5"/>
	<rect id="XMLID_9_" x="230.6" y="25.9" class="st0" width="187.1" height="93.5"/>
</g>
<circle id="XMLID_8_" class="st3" cx="324.1" cy="138.1" r="4.5"/>
<rect id="XMLID_12_" x="305.7" y="148.7" class="st4" width="36.9" height="20"/>
<line id="XMLID_15_" class="st5" x1="286.4" y1="168.7" x2="361.8" y2="168.7"/>
<rect id="XMLID_41_" x="257.2" y="50.2" class="st6" width="123.3" height="57.2"/>
<rect id="XMLID_16_" x="262.7" y="44" class="st7" width="122.9" height="57.4"/>
<rect id="XMLID_25_" x="262.7" y="44" class="st4" width="122.9" height="10.3"/>
<line id="XMLID_28_" class="st5" x1="273.7" y1="64.5" x2="290.8" y2="64.5"/>
<g id="XMLID_27_">
	<line id="XMLID_29_" class="st5" x1="273.9" y1="73" x2="320.5" y2="73"/>
	<line id="XMLID_30_" class="st5" x1="327.7" y1="73" x2="374.4" y2="73"/>
</g>
<g id="XMLID_32_">
	<line id="XMLID_34_" class="st5" x1="273.9" y1="80.7" x2="320.5" y2="80.7"/>
	<line id="XMLID_33_" class="st5" x1="327.7" y1="80.7" x2="374.4" y2="80.7"/>
</g>
<g id="XMLID_35_">
	<line id="XMLID_37_" class="st5" x1="273.9" y1="88.5" x2="320.5" y2="88.5"/>
	<line id="XMLID_36_" class="st5" x1="327.7" y1="88.5" x2="374.4" y2="88.5"/>
</g>
<g id="XMLID_38_">
	<circle id="XMLID_31_" class="st8" cx="356.9" cy="49.1" r="1.9"/>
	<circle id="XMLID_39_" class="st8" cx="364.7" cy="49.1" r="1.9"/>
	<circle id="XMLID_40_" class="st8" cx="372.5" cy="49.1" r="1.9"/>
</g>
<rect id="XMLID_111_" x="111.3" y="174.9" class="st9" width="99.7" height="36.6"/>
<g id="XMLID_44_">
	<rect id="XMLID_43_" x="154.4" y="170.8" class="st1" width="47.3" height="28.1"/>
	<polygon id="XMLID_46_" class="st1" points="201.7,199 178,181.2 154.4,199 	"/>
	<polygon id="XMLID_45_" class="st1" points="154.4,170.8 178,188.6 201.7,170.8 	"/>
	<line id="XMLID_47_" class="st5" x1="149.1" y1="199" x2="135.9" y2="199"/>
	<line id="XMLID_53_" class="st5" x1="149.1" y1="170.8" x2="135.9" y2="170.8"/>
	<line id="XMLID_54_" class="st5" x1="130.9" y1="170.8" x2="127.8" y2="170.8"/>
	<line id="XMLID_56_" class="st5" x1="130.9" y1="199" x2="127.8" y2="199"/>
	<line id="XMLID_55_" class="st5" x1="128.1" y1="184.9" x2="125.1" y2="184.9"/>
	<line id="XMLID_59_" class="st5" x1="123.7" y1="170.8" x2="120.7" y2="170.8"/>
	<line id="XMLID_58_" class="st5" x1="123.7" y1="199" x2="120.7" y2="199"/>
	<line id="XMLID_57_" class="st5" x1="121" y1="184.9" x2="118" y2="184.9"/>
	<line id="XMLID_52_" class="st5" x1="149.1" y1="184.9" x2="132.4" y2="184.9"/>
</g>
<g id="XMLID_64_">
	<path class="st10" d="M249.1,172.4"/>
</g>
<g id="XMLID_67_">
	<path class="st10" d="M392.2,173.9"/>
</g>
<g id="XMLID_75_">
	<path id="XMLID_5_" class="st11" d="M330.5-12.7"/>
	<path id="XMLID_2_" class="st11" d="M317.8-12.7"/>
	<path id="XMLID_1_" class="st11" d="M330.5,0"/>
</g>
<g id="XMLID_79_">
	<path id="XMLID_65_" class="st11" d="M459.5,106.2"/>
	<path id="XMLID_66_" class="st11" d="M446.8,136.2"/>
	<path id="XMLID_14_" class="st11" d="M459.5,119"/>
</g>
<g id="XMLID_20_">
	<rect id="XMLID_102_" x="1" y="73" class="st12" width="177" height="63.2"/>
	<g id="XMLID_94_">
		<path id="XMLID_95_" class="st0" d="M155.3,145.7h-129c-5.1,0-9.2-4.1-9.2-9.2V87.1c0-5.1,4.1-9.2,9.2-9.2h129
			c5.1,0,9.2,4.1,9.2,9.2v49.5C164.4,141.6,160.4,145.7,155.3,145.7z"/>
		<g id="XMLID_96_">
			<rect id="XMLID_97_" x="27.1" y="129.7" class="st3" width="8" height="8"/>
			<rect id="XMLID_98_" x="42.1" y="129.7" class="st3" width="8" height="8"/>
			<polygon id="XMLID_168_" class="st1" points="102.1,129.7 95.1,129.7 87.1,129.7 80.1,129.7 72.1,129.7 57.1,129.7 57.1,137.7 
				72.1,137.7 80.1,137.7 87.1,137.7 95.1,137.7 102.1,137.7 110.1,137.7 110.1,129.7 			"/>
			<rect id="XMLID_134_" x="117.1" y="129.7" class="st3" width="8" height="8"/>
			<rect id="XMLID_135_" x="132.1" y="129.7" class="st3" width="8" height="8"/>
			<rect id="XMLID_136_" x="147.1" y="129.7" class="st3" width="8" height="8"/>
		</g>
		<g id="XMLID_138_">
			<rect id="XMLID_147_" x="27.1" y="115.4" class="st3" width="8" height="8"/>
			<rect id="XMLID_146_" x="42.1" y="115.4" class="st3" width="8" height="8"/>
			<rect id="XMLID_145_" x="57.1" y="115.4" class="st3" width="8" height="8"/>
			<rect id="XMLID_144_" x="72.1" y="115.4" class="st3" width="8" height="8"/>
			<rect id="XMLID_143_" x="87.1" y="115.4" class="st3" width="8" height="8"/>
			<rect id="XMLID_142_" x="102.1" y="115.4" class="st3" width="8" height="8"/>
			<rect id="XMLID_141_" x="117.1" y="115.4" class="st3" width="8" height="8"/>
			<rect id="XMLID_140_" x="132.1" y="115.4" class="st3" width="8" height="8"/>
			<rect id="XMLID_139_" x="147.1" y="115.4" class="st1" width="8" height="22.3"/>
		</g>
		<g id="XMLID_148_">
			<rect id="XMLID_157_" x="27.1" y="101.1" class="st3" width="8" height="8"/>
			<rect id="XMLID_156_" x="42.1" y="101.1" class="st3" width="8" height="8"/>
			<rect id="XMLID_155_" x="57.1" y="101.1" class="st3" width="8" height="8"/>
			<rect id="XMLID_154_" x="72.1" y="101.1" class="st3" width="8" height="8"/>
			<rect id="XMLID_153_" x="87.1" y="101.1" class="st3" width="8" height="8"/>
			<polygon id="XMLID_137_" class="st1" points="125.1,101.1 117.1,101.1 102.1,101.1 102.1,109.1 117.1,109.1 125.1,109.1 
				125.1,109.1 125.1,101.1 			"/>
			<rect id="XMLID_150_" x="132.1" y="101.1" class="st3" width="8" height="8"/>
			<rect id="XMLID_149_" x="147.1" y="101.1" class="st3" width="8" height="8"/>
		</g>
		<g id="XMLID_158_">
			<rect id="XMLID_167_" x="27.1" y="86.7" class="st1" width="8" height="8"/>
			<rect id="XMLID_165_" x="57.1" y="86.7" class="st3" width="8" height="8"/>
			<rect id="XMLID_164_" x="72.1" y="86.7" class="st3" width="8" height="8"/>
			<rect id="XMLID_163_" x="87.1" y="86.7" class="st3" width="8" height="8"/>
			<rect id="XMLID_162_" x="102.1" y="86.7" class="st3" width="8" height="8"/>
			<rect id="XMLID_161_" x="117.1" y="86.7" class="st3" width="8" height="8"/>
			<rect id="XMLID_160_" x="132.1" y="86.7" class="st3" width="8" height="8"/>
			<rect id="XMLID_159_" x="147.1" y="86.7" class="st3" width="8" height="8"/>
		</g>
	</g>
</g>
<rect id="XMLID_173_" x="430.7" y="180.5" class="st6" width="61.8" height="30.1"/>
<path id="XMLID_151_" class="st4" d="M462.7,203.2h-34.5c-2.6,0-4.8-2.1-4.8-4.8v-8.8c0-2.6,2.1-4.8,4.8-4.8h34.5V203.2z"/>
<g id="XMLID_152_">
	<rect id="XMLID_166_" x="462.7" y="188.1" class="st0" width="14.9" height="12"/>
	<g id="XMLID_169_">
		<rect id="XMLID_170_" x="469" y="190.9" class="st8" width="2.4" height="2.4"/>
		<rect id="XMLID_171_" x="469" y="194.8" class="st8" width="2.4" height="2.4"/>
	</g>
</g>
<line id="XMLID_172_" class="st5" x1="430.7" y1="191.5" x2="430.7" y2="196.6"/>
<g id="XMLID_196_">
	<path id="XMLID_204_" class="st0" d="M492.2,72.7c-18.9,0-34.2,15.3-34.2,34.2s15.3,34.2,34.2,34.2c18.9,0,34.2-15.3,34.2-34.2
		S511.1,72.7,492.2,72.7z M492.2,115.3c-4.6,0-8.3-3.7-8.3-8.3c0-4.6,3.7-8.3,8.3-8.3c4.6,0,8.3,3.7,8.3,8.3
		C500.5,111.5,496.8,115.3,492.2,115.3z"/>
	<path id="XMLID_202_" class="st1" d="M492.2,89.4c-9.7,0-17.5,7.8-17.5,17.5c0,9.7,7.8,17.5,17.5,17.5c9.7,0,17.5-7.8,17.5-17.5
		C509.7,97.3,501.9,89.4,492.2,89.4z M492.2,115.3c-4.6,0-8.3-3.7-8.3-8.3c0-4.6,3.7-8.3,8.3-8.3c4.6,0,8.3,3.7,8.3,8.3
		C500.5,111.5,496.8,115.3,492.2,115.3z"/>
	<path id="XMLID_205_" class="st5" d="M517.2,106.9c0,13.8-11.2,24.9-24.9,24.9"/>
	<path id="XMLID_198_" class="st5" d="M467.3,106.9c0-13.8,11.2-24.9,24.9-24.9"/>
</g>
<g id="XMLID_207_">
	<rect id="XMLID_197_" x="560.5" y="100.9" class="st0" width="8.4" height="43.1"/>
	<rect id="XMLID_206_" x="558.9" y="69.9" class="st1" width="11.5" height="31"/>
	<polyline id="XMLID_208_" class="st5" points="558.9,75.1 575.1,75.1 575.1,116 573.7,116 	"/>
</g>
<polyline id="XMLID_3_" class="st10" points="733.4,382.1 -66.6,382.1 -66.6,-151.3 733.4,-151.3 "/>
</svg>
