<?xml version="1.0" encoding="utf-8"?>
<!-- Generator: Adobe Illustrator 22.1.0, SVG Export Plug-In . SVG Version: 6.00 Build 0)  -->
<svg version="1.1" id="Layer_1" xmlns="http://www.w3.org/2000/svg" xmlns:xlink="http://www.w3.org/1999/xlink" x="0px" y="0px"
	 viewBox="200 0 560 560" style="enable-background:new 200 0 560 560;" xml:space="preserve">
<style type="text/css">
	.st0{fill:#FFFFFF;}
</style>
<g>
	<g>
		<g>
			<circle class="st0" cx="211" cy="547.4" r="11"/>
		</g>
	</g>
	<g>
		<g>
			<circle class="st0" cx="492" cy="268.3" r="11"/>
		</g>
	</g>
	<g>
		<g>
			<path class="st0" d="M635.8,129.1c-8.8-8.8-20.6-13.7-33-13.7s-24.2,4.9-33,13.7c-18.2,18.2-18.2,47.9,0,66.1
				c9.1,9.1,21.1,13.7,33,13.7c12,0,23.9-4.6,33-13.7C654.1,177,654.1,147.3,635.8,129.1z M620.3,179.7c-9.7,9.7-25.4,9.7-35,0
				c-9.7-9.7-9.7-25.4,0-35c4.7-4.7,10.9-7.3,17.5-7.3s12.8,2.6,17.5,7.3C630,154.3,630,170,620.3,179.7z"/>
		</g>
	</g>
	<g>
		<g>
			<path class="st0" d="M337.2,450c-5.4-2.7-12-0.5-14.7,4.9l-13.1,26.3c-5.7,11.4-17.1,19.1-29.9,19.9l-15.2,1
				c-2.6,0.2-4.3-1.1-5-1.9c-0.8-0.8-2.1-2.5-1.9-5l1-15.2c0.9-12.7,8.5-24.2,19.9-29.9l26.3-13.1c5.4-2.7,7.6-9.3,4.9-14.7
				c-2.7-5.4-9.3-7.6-14.7-4.9l-26.3,13.1c-18.4,9.1-30.6,27.5-32,48l-1,15.2c-0.6,8.2,2.5,16.3,8.3,22.1c5.4,5.4,12.6,8.3,20.1,8.3
				c0.6,0,1.3,0,1.9-0.1l15.2-1c20.5-1.4,38.9-13.7,48-32l13.1-26.3C344.8,459.3,342.6,452.7,337.2,450z"/>
		</g>
	</g>
	<g>
		<g>
			<path class="st0" d="M752.4,8.9c-5.2-5.1-12.3-7.7-19.5-7.3l-10.2,0.7C631,8.2,545.2,52.4,487.3,123.7l-24.1,29.6l-63-1.8
				c-0.1,0-0.2,0-0.3,0c-49.9,0-96.9,19.5-132.2,54.8l-64.5,64.5c-3.1,3.1-4,7.7-2.5,11.7c1.6,4.1,5.4,6.8,9.7,7l136.5,7l-5.6,6.9
				c-2.8,3.5-3.2,8.3-1.1,12.2c2.1,3.9,4.4,7.8,6.7,11.6l-32.4,38.4c-2.8,3.3-3.4,7.9-1.5,11.8c7.1,14.9,16.5,28.4,27.9,39.9
				c11.7,11.8,25.4,21.5,40.7,28.7c1.5,0.7,3.1,1.1,4.7,1.1c2.5,0,4.9-0.8,6.9-2.5c7-5.7,15-12.4,22.8-18.9
				c5.5-4.6,11.2-9.4,16.5-13.7c3.2,1.9,6.4,3.8,9.6,5.5c1.6,0.9,3.4,1.3,5.2,1.3c2.4,0,4.8-0.8,6.7-2.3l7.5-5.8l7,137.1
				c0.2,4.3,3,8.1,7,9.7c1.3,0.5,2.6,0.7,3.9,0.7c2.9,0,5.7-1.1,7.8-3.2l64.5-64.5c35.3-35.3,54.8-82.3,54.8-132.2v-60.2l25.4-19.7
				C708.5,219.3,755,130.1,759.7,33.6l0.3-5.3C760.3,21.1,757.6,14,752.4,8.9z M236.2,268.9l47-47c31.1-31.1,72.5-48.3,116.5-48.3
				l46,1.4L364,275.6L236.2,268.9z M402.1,408.9c-5.7,4.8-11.6,9.7-17.1,14.2c-10.5-5.7-20.1-12.8-28.4-21.2
				c-8.1-8.1-15-17.4-20.5-27.6l23.7-28.1c7.2,9.6,15,18.7,23.5,27.3l0,0l0,0l0,0c9.4,9.5,19.5,18.1,30.2,26
				C409.8,402.5,405.9,405.7,402.1,408.9z M584.9,358.4c0,44.1-17.2,85.5-48.3,116.7l-47,47L483,394.4l101.9-79.1V358.4L584.9,358.4
				z M737.8,32.6c-4.4,90-47.8,173.3-119,228.6L446.6,394.8c-14.3-8.3-27.6-18.2-39.8-29.4l58.1-58.1c4.3-4.3,4.3-11.2,0-15.5
				s-11.2-4.3-15.5,0l-58,58c-10.7-11.8-20.1-24.7-28.2-38.4l141.2-173.9C558.5,71,638.6,29.7,724.1,24.3l10.2-0.7
				c1.3-0.1,2.2,0.6,2.7,1c0.4,0.4,1.1,1.3,1,2.6L737.8,32.6z"/>
		</g>
	</g>
</g>
</svg>
