<?xml version="1.0" encoding="utf-8"?>
<!-- Generator: Adobe Illustrator 22.0.0, SVG Export Plug-In . SVG Version: 6.00 Build 0)  -->
<svg version="1.1" id="Capa_1" xmlns="http://www.w3.org/2000/svg" xmlns:xlink="http://www.w3.org/1999/xlink" x="0px" y="0px"
	 viewBox="0 0 512 512" style="enable-background:new 0 0 512 512;" xml:space="preserve">
<style type="text/css">
	.st0{fill:#88D317;stroke:#FFFFFF;stroke-miterlimit:10;}
	.st1{fill:#FFFFFF;}
</style>
<circle class="st0" cx="256" cy="257.1" r="256"/>
<path class="st1" d="M173.1,285.6h-47.4c-6.5,0-11.8-5.3-11.8-11.8s5.3-11.8,11.8-11.8h35.5v-71h-35.5c-6.5,0-11.8-5.3-11.8-11.8
	s5.3-11.8,11.8-11.8h47.4c6.5,0,11.8,5.3,11.8,11.8v94.7C185,280.3,179.7,285.6,173.1,285.6z"/>
<path class="st1" d="M256,285.6h-23.7c-13.1,0-23.7-10.6-23.7-23.7v-71c0-13.1,10.6-23.7,23.7-23.7h35.5c6.5,0,11.8,5.3,11.8,11.8
	s-5.3,11.8-11.8,11.8h-35.5v23.7H256c13.1,0,23.7,10.6,23.7,23.7v23.7C279.7,275,269.1,285.6,256,285.6z M232.3,238.2v23.7H256
	v-23.7H232.3z"/>
<path class="st1" d="M350.7,285.6H327c-13.1,0-23.7-10.6-23.7-23.7v-71c0-13.1,10.6-23.7,23.7-23.7h23.7c13.1,0,23.7,10.6,23.7,23.7
	v71C374.4,275,363.8,285.6,350.7,285.6z M327,190.9v71h23.7v-71H327z"/>
<path class="st1" d="M173.1,238.2h-47.4c-6.5,0-11.8-5.3-11.8-11.8s5.3-11.8,11.8-11.8h47.4c6.5,0,11.8,5.3,11.8,11.8
	C185,232.9,179.7,238.2,173.1,238.2z"/>
<path class="st1" d="M256,380.3c-106.2,0-189.4-41.6-189.4-94.7c1-20.3,11.4-38.9,28.2-50.3c5.2-4,12.6-3.1,16.6,2
	c4,5.2,3.1,12.6-2,16.6l0,0c-10.8,7.1-17.8,18.7-19.1,31.6c0,33.6,68.1,71,165.7,71c6.5,0,11.8,5.3,11.8,11.8
	C267.8,375,262.5,380.3,256,380.3z"/>
<path class="st1" d="M291.5,378.6c-6.5,0.3-12.1-4.7-12.4-11.3c-0.3-6.5,4.7-12.1,11.3-12.4c74.9-7.2,131.4-37,131.4-69.4
	c-1.3-12.9-8.3-24.5-19.1-31.6c-5.2-4-6.1-11.5-2-16.6c4-5.2,11.5-6.1,16.6-2l0,0c16.8,11.4,27.3,30,28.2,50.3
	c0,46-62.8,84.3-152.8,93H291.5z"/>
<path class="st1" d="M220.5,415.8c-6.5,0-11.8-5.3-11.9-11.8c0-3.2,1.2-6.2,3.5-8.4l27.2-27.1l-27.2-27.1c-4.6-4.6-4.6-12.1,0-16.8
	s12.1-4.6,16.8,0l35.5,35.5c4.6,4.6,4.6,12.1,0,16.7l0,0l-35.5,35.5C226.6,414.6,223.6,415.8,220.5,415.8z"/>
<path class="st1" d="M409.9,167.2c-19.6,0-35.5-15.9-35.5-35.5s15.9-35.5,35.5-35.5s35.5,15.9,35.5,35.5S429.5,167.2,409.9,167.2z
	 M409.9,119.9c-6.5,0-11.8,5.3-11.8,11.8s5.3,11.8,11.8,11.8s11.8-5.3,11.8-11.8C421.7,125.2,416.4,119.9,409.9,119.9z"/>
</svg>
